<?xml version="1.0" standalone="no"?>
<!DOCTYPE svg PUBLIC "-//W3C//DTD SVG 20010904//EN"
 "http://www.w3.org/TR/2001/REC-SVG-20010904/DTD/svg10.dtd">
<svg version="1.0" xmlns="http://www.w3.org/2000/svg"
 width="1280.000000pt" height="720.000000pt" viewBox="0 0 1280.000000 720.000000"
 preserveAspectRatio="xMidYMid meet">
<metadata>
Created by potrace 1.16, written by Peter Selinger 2001-2019
</metadata>
<g transform="translate(0.000000,720.000000) scale(0.100000,-0.100000)"
fill="#000000" stroke="none">
<path d="M3880 5014 c-309 -37 -560 -132 -775 -293 -509 -382 -703 -1020 -488
-1606 124 -337 383 -620 718 -784 299 -147 589 -189 935 -135 277 43 589 203
791 407 275 277 418 617 419 992 0 216 -43 402 -139 600 -172 354 -474 616
-858 745 -65 21 -161 46 -213 55 -95 16 -325 27 -390 19z m-170 -1396 c85
-205 164 -386 175 -403 11 -16 39 -39 62 -50 23 -11 42 -23 43 -27 0 -5 -74
-8 -165 -8 -103 0 -165 4 -165 10 0 6 8 10 18 10 10 0 28 7 40 16 32 22 28 61
-14 160 l-37 84 -164 -2 -164 -3 -34 -77 c-49 -115 -52 -131 -19 -157 15 -11
37 -21 50 -21 13 0 24 -4 24 -10 0 -6 -52 -10 -135 -10 -127 0 -172 10 -106
25 58 13 60 16 256 475 167 391 152 360 168 360 7 0 82 -168 167 -372z m937
347 c97 -31 101 -31 113 0 16 42 27 28 34 -40 3 -36 9 -94 12 -130 8 -83 -6
-85 -45 -7 -68 134 -201 191 -348 147 -214 -64 -291 -414 -142 -647 78 -122
237 -169 377 -113 l42 17 0 162 c0 183 -4 195 -65 205 -21 3 -40 12 -43 19 -3
9 34 12 163 12 129 0 166 -3 163 -12 -3 -7 -16 -14 -30 -16 -54 -7 -61 -27
-66 -213 l-5 -171 -42 -19 c-88 -39 -164 -52 -280 -47 -127 6 -191 26 -270 86
-55 41 -128 142 -145 200 -18 59 -23 174 -11 232 35 161 166 307 310 346 79
22 191 17 278 -11z"/>
<path d="M3433 3625 l-71 -165 143 0 144 0 -53 128 c-81 193 -85 202 -89 202
-2 0 -35 -74 -74 -165z"/>
<path d="M7234 4002 c-49 -23 -110 -93 -124 -141 -6 -20 -13 -62 -17 -93 l-6
-58 -53 0 c-51 0 -54 -1 -54 -25 0 -24 3 -25 55 -25 l55 0 0 -224 c0 -250 -3
-261 -68 -274 -18 -4 -34 -11 -35 -17 -1 -6 58 -10 163 -10 100 0 167 4 170
10 3 6 -14 12 -37 15 -83 10 -83 10 -83 260 0 121 -1 223 -2 228 -2 4 30 8 70
10 69 3 72 4 72 27 0 23 -3 24 -71 27 l-72 3 2 95 c3 105 14 139 52 157 38 18
81 0 113 -46 15 -21 38 -43 51 -49 21 -10 29 -8 51 11 21 18 24 28 19 50 -18
71 -162 110 -251 69z"/>
<path d="M5819 3986 c-115 -41 -179 -149 -150 -253 23 -88 73 -134 258 -239
130 -74 173 -116 180 -176 6 -56 -14 -98 -60 -127 -45 -28 -154 -29 -212 -2
-57 25 -109 87 -124 146 -19 74 -20 75 -31 75 -6 0 -10 -54 -10 -150 0 -148 8
-182 30 -125 12 31 33 32 120 5 216 -67 399 29 400 209 0 66 -27 128 -74 169
-18 16 -91 62 -162 102 -158 89 -188 111 -209 156 -45 96 52 191 173 169 92
-17 161 -85 184 -183 7 -29 18 -52 25 -52 10 0 13 35 13 145 0 122 -2 145 -15
145 -8 0 -15 -7 -15 -15 0 -32 -35 -35 -106 -10 -77 27 -158 32 -215 11z"/>
<path d="M7521 3855 c-28 -62 -67 -111 -118 -146 -50 -35 -48 -49 7 -49 l38 0
4 -229 c3 -215 4 -231 24 -258 11 -15 38 -34 59 -41 35 -11 43 -10 83 10 28
14 53 37 66 60 26 45 17 58 -17 24 -32 -32 -71 -34 -91 -4 -13 19 -16 58 -16
230 l0 208 65 0 c63 0 65 1 65 25 0 24 -2 25 -65 25 l-65 0 0 89 c0 50 -4 92
-9 96 -6 3 -19 -15 -30 -40z"/>
<path d="M9303 3692 c-91 -36 -116 -60 -56 -54 52 5 54 -7 53 -234 -1 -227 -4
-240 -59 -246 -14 -2 -25 -7 -23 -13 3 -16 284 -13 290 3 2 7 -6 12 -21 12
-14 0 -35 9 -48 19 -23 19 -24 25 -27 186 -4 182 1 205 48 250 l29 28 36 -22
c63 -37 108 -22 108 36 0 34 -35 63 -75 63 -41 0 -83 -27 -116 -74 l-27 -40
-3 55 c-2 30 -6 57 -10 61 -4 4 -49 -10 -99 -30z"/>
<path d="M9898 3719 c-83 -13 -150 -67 -190 -154 -32 -70 -33 -228 -2 -295 26
-55 76 -106 129 -131 43 -20 128 -25 169 -9 43 16 108 83 132 135 40 85 25
120 -18 43 -57 -102 -169 -118 -261 -37 -50 43 -87 122 -87 184 l0 35 195 0
195 0 0 29 c0 37 -18 89 -44 124 -44 60 -129 89 -218 76z m57 -53 c39 -17 75
-68 75 -108 l0 -28 -130 0 c-117 0 -130 2 -130 18 0 33 45 97 80 114 43 22 60
22 105 4z"/>
<path d="M6492 3694 c-94 -47 -153 -155 -154 -280 0 -65 4 -85 31 -139 53
-106 128 -155 238 -155 112 0 187 49 240 157 33 66 37 83 37 152 0 96 -32 170
-99 229 -78 69 -198 83 -293 36z m188 -50 c49 -45 80 -123 87 -224 8 -105 -9
-179 -50 -218 -108 -104 -244 10 -264 223 -9 94 12 172 57 217 33 33 44 38 84
38 39 0 52 -6 86 -36z"/>
<path d="M8795 3701 c-55 -25 -86 -62 -92 -108 -6 -45 14 -73 51 -73 32 0 42
16 49 75 3 34 12 55 27 67 22 18 83 24 115 12 25 -10 45 -59 45 -112 l0 -49
-47 -18 c-126 -47 -224 -109 -249 -156 -34 -67 -6 -167 57 -201 52 -29 109
-19 180 31 32 23 60 41 64 41 3 0 5 -10 5 -22 0 -29 9 -42 38 -57 34 -18 83 2
126 50 52 56 49 77 -4 37 -54 -39 -58 -23 -62 207 -3 188 -5 206 -24 232 -33
44 -79 62 -164 62 -52 0 -87 -5 -115 -18z m195 -341 l0 -109 -43 -26 c-75 -43
-135 -28 -157 40 -16 47 2 98 44 130 29 22 130 73 149 74 4 1 7 -48 7 -109z"/>
<path d="M7720 3696 c0 -8 11 -17 25 -20 14 -4 31 -16 40 -29 8 -12 53 -124
100 -247 47 -124 91 -238 97 -253 6 -15 17 -27 25 -25 7 2 48 77 89 168 42 91
79 169 84 173 4 5 38 -71 76 -167 47 -120 74 -176 84 -176 9 0 24 24 39 63 86
226 165 426 178 450 7 15 25 33 38 39 14 6 25 17 25 25 0 10 -21 13 -90 13
-71 0 -90 -3 -90 -14 0 -9 12 -16 28 -18 19 -2 28 -9 30 -26 4 -23 -116 -352
-128 -352 -12 0 -132 316 -128 341 2 17 12 27 36 34 17 5 32 15 32 22 0 10
-31 13 -135 13 -113 0 -135 -2 -135 -15 0 -8 8 -15 18 -15 32 0 60 -30 82 -87
l21 -56 -58 -129 c-32 -70 -60 -128 -63 -128 -12 0 -131 343 -128 368 2 19 9
28 26 30 12 2 22 10 22 18 0 11 -23 14 -120 14 -96 0 -120 -3 -120 -14z"/>
</g>
</svg>
